<svg xmlns="http://www.w3.org/2000/svg" width="53" height="52" viewBox="0 0 1024 1024">    
    <path d="M426.210822 711.948662l-166.984671 0c-9.12351 0-16.516129 7.394822-16.516129 16.516129l0 54.85557 0 141.602684c0 9.121308 7.392619 16.516129 16.516129 16.516129s16.516129-7.394822 16.516129-16.516129L275.74228 857.517419c17.742727 16.031656 41.237471 25.811406 66.976206 25.811406s49.23348-9.779751 66.976206-25.811406l0 67.403424c0 9.121308 7.392619 16.516129 16.516129 16.516129s16.516129-7.394822 16.516129-16.516129l0-141.602684 0-54.85557C442.726951 719.343484 435.334331 711.948662 426.210822 711.948662zM409.694692 783.320361c0 36.932267-30.046142 66.978409-66.976206 66.978409s-66.976206-30.046142-66.976206-66.978409l0-38.339441 133.952413 0L409.694692 783.320361zM764.773849 711.948662l-166.984671 0c-9.12351 0-16.516129 7.394822-16.516129 16.516129l0 54.85557 0 141.602684c0 9.121308 7.392619 16.516129 16.516129 16.516129s16.516129-7.394822 16.516129-16.516129L614.305308 857.517419c17.742727 16.031656 41.237471 25.811406 66.976206 25.811406s49.23348-9.779751 66.976206-25.811406l0 67.403424c0 9.121308 7.392619 16.516129 16.516129 16.516129s16.516129-7.394822 16.516129-16.516129l0-141.602684 0-54.85557C781.289978 719.343484 773.897359 711.948662 764.773849 711.948662zM748.25772 783.320361c0 36.932267-30.046142 66.978409-66.976206 66.978409s-66.976206-30.046142-66.976206-66.978409l0-38.339441 133.952413 0L748.25772 783.320361zM783.536172 261.005488l0.013213-61.444404c0-41.530357-33.789798-75.317953-75.320155-75.317953L617.791312 124.243131C605.322735 59.367776 550.169875 0 512.011011 0s-93.309523 59.367776-105.778099 124.240929l-90.442323 0c-41.530357 0-75.317953 33.787596-75.317953 75.317953l0 61.435596c-43.446228 58.504533-66.388232 127.929531-66.388232 201.162047l0 486.52332c0 41.530357 33.787596 75.317953 75.317953 75.317953l525.195286 0c41.530357 0 75.317953-33.787596 75.317953-75.317953L849.915596 462.158727C849.915596 388.928413 826.977996 319.507819 783.536172 261.005488zM560.458323 73.342624c10.171733 14.437299 19.022176 31.891544 23.602649 50.900508l-23.602649 0L560.458323 73.342624zM496.595957 39.447123c6.159415-4.135639 11.563492-6.414865 15.415054-6.414865s9.255639 2.277024 15.415054 6.412662l0 84.796009-30.830108 0L496.595957 39.447123zM463.563699 73.342624l0 50.898305-23.600447 0C444.543725 105.234168 453.391966 87.779923 463.563699 73.342624zM273.504895 199.561084c0-23.31637 18.969325-42.285695 42.285695-42.285695l287.629488 0c0.006606 0 0.015415 0 0.022022 0 0.008809 0 0.017617 0 0.026426 0l104.760705 0c23.318572 0 42.287897 18.969325 42.287897 42.283492L750.495105 308.301075c0 111.257049-76.581987 204.956353-179.796783 231.175157l0-61.428989c0-9.121308-7.392619-16.516129-16.516129-16.516129s-16.516129 7.394822-16.516129 16.516129l0 67.363785c-8.434237 0.907286-16.996198 1.385153-25.666065 1.385153s-17.231828-0.477867-25.666065-1.385153l0-67.363785c0-9.121308-7.392619-16.516129-16.516129-16.516129s-16.516129 7.394822-16.516129 16.516129l0 61.428989c-103.214796-26.221006-179.796783-119.92031-179.796783-231.175157L273.504895 199.561084zM486.333935 612.858495l0-34.254452c8.451854 0.797178 17.009411 1.222194 25.666065 1.222194s17.214211-0.425015 25.666065-1.222194L537.666065 612.858495 486.333935 612.858495zM537.666065 645.890753l0 10.132095c0 14.153222-11.515045 25.666065-25.666065 25.666065s-25.666065-11.515045-25.666065-25.666065L486.333935 645.890753 537.666065 645.890753zM816.883338 948.682047c0 23.31637-18.969325 42.285695-42.285695 42.285695L249.402357 990.967742c-23.31637 0-42.285695-18.969325-42.285695-42.285695L207.116662 462.158727c0-49.3568 11.554684-96.78892 33.728138-139.631759 6.392843 123.234546 95.339905 224.978305 212.456877 250.888809L453.301677 612.858495l-2.74388 0c-9.12351 0-16.516129 7.394822-16.516129 16.516129s7.392619 16.516129 16.516129 16.516129l2.74388 0 0 10.132095c0 32.367209 26.331114 58.698323 58.698323 58.698323s58.698323-26.333316 58.698323-58.698323L570.698323 645.890753l2.74388 0c9.12351 0 16.516129-7.394822 16.516129-16.516129s-7.392619-16.516129-16.516129-16.516129l-2.74388 0 0-39.442718c117.119174-25.912705 206.064034-127.656465 212.456877-250.888809 22.173454 42.840637 33.728138 90.274959 33.728138 139.631759L816.883338 948.682047z" />
</svg>